<svg width="18" height="18" viewBox="0 0 18 18" fill="none" xmlns="http://www.w3.org/2000/svg">
<path d="M8.57063 2.81952C7.6951 2.81952 6.82815 2.99197 6.01928 3.32701C5.2104 3.66206 4.47543 4.15315 3.85634 4.77224C3.23726 5.39133 2.74617 6.12629 2.41112 6.93517C2.07607 7.74405 1.90363 8.611 1.90363 9.48652C1.90363 10.362 2.07607 11.229 2.41112 12.0379C2.74617 12.8467 3.23726 13.5817 3.85634 14.2008C4.47543 14.8199 5.2104 15.311 6.01928 15.646C6.82815 15.9811 7.6951 16.1535 8.57063 16.1535C10.3388 16.1535 12.0346 15.4511 13.2849 14.2008C14.5352 12.9505 15.2376 11.2547 15.2376 9.48652C15.2376 7.71832 14.5352 6.02254 13.2849 4.77224C12.0346 3.52193 10.3388 2.81952 8.57063 2.81952ZM11.2376 10.1535H8.57063C8.39373 10.1535 8.22407 10.0832 8.09899 9.95816C7.9739 9.83307 7.90363 9.66342 7.90363 9.48652V6.81952C7.90363 6.64262 7.9739 6.47297 8.09899 6.34788C8.22407 6.22279 8.39373 6.15252 8.57063 6.15252C8.74753 6.15252 8.91718 6.22279 9.04227 6.34788C9.16735 6.47297 9.23763 6.64262 9.23763 6.81952V8.81952H11.2376C11.4145 8.81952 11.5842 8.88979 11.7093 9.01488C11.8344 9.13997 11.9046 9.30962 11.9046 9.48652C11.9046 9.66342 11.8344 9.83307 11.7093 9.95816C11.5842 10.0832 11.4145 10.1535 11.2376 10.1535Z" fill="#8BACD9"/>
</svg>
